<?xml version="1.0" encoding="UTF-8"?><svg id="a" xmlns="http://www.w3.org/2000/svg" viewBox="0 0 1506.54 88.64"><defs><style>.b{fill:#ff1d25;font-family:SignPainter-HouseScript, SignPainter;font-size:120px;}.c{fill:#0071bc;}</style></defs><g><path class="c" d="M176.26,82.2V10.3H26.23c-.89,.1-3.24,.45-5.26,1.76-2.56,1.66-2.79,3.7-2.83,4.2v1.7h0c0,1.79,0,3.57,0,5.36h0V55.81h0c0,1.79,0,3.57,0,5.36h0v1.7c.03,.5,.26,2.54,2.83,4.2,2.02,1.31,4.37,1.66,5.26,1.76H105.48c.89-.1,3.24-.45,5.26-1.76,2.56-1.66,2.79-3.7,2.83-4.2v-9.87c-.03-.5-.27-2.54-2.83-4.2-2.02-1.31-4.37-1.66-5.26-1.76H60.83v5.42h42.58v11.05H30.42V18.68H164.25v63.52h12.01Z"/><path class="c" d="M252.36,82.2V10.3h-69.76V82.2h12.07V18.68h45.63v63.52h12.07Z"/><path class="c" d="M338.62,0H30.42C13.62,0,0,8.36,0,18.68V63.52c0,10.32,13.62,18.68,30.42,18.68H103.42c16.8,0,30.41-8.37,30.41-18.68v-11.05c0-10.32-13.62-18.68-30.42-18.68H60.83v9.17h44.14v.02c7.79,.16,14.12,3.84,14.86,8.54h.08v.86h0v11.14h0v.4h-.04c-.41,5.02-7.14,9.01-15.42,9.01-.61,0-1.21-.02-1.8-.07l-.05,.07H27.15c-8.45-.04-15.29-4.23-15.35-9.41h0V15.63h0c.05-5.2,6.95-9.41,15.46-9.41,.61,0,1.21,.02,1.8,.07l.05-.07H335.5"/><path class="c" d="M258.7,52.27v29.93h12.01v-22.42h36.22c1.47-2.47,2.93-4.95,4.4-7.42-17.54-.03-35.09-.06-52.63-.09Z"/><path class="c" d="M258.7,10.3V48.19c6.66,0,13.32,0,19.97,0,11.48,0,22.97,0,34.45,0,1.22-2.36,2.44-4.72,3.66-7.08-15.36,0-30.72,0-46.07,0V18.68c19.35,0,38.69,0,58.04,0,1.47-2.79,2.94-5.59,4.41-8.38h-74.45Z"/></g><text class="b" transform="translate(311.33 85.74)"><tspan x="0" y="0">ast</tspan></text></svg>